<?xml version="1.0" standalone="no"?>
<!DOCTYPE svg PUBLIC "-//W3C//DTD SVG 20010904//EN"
 "http://www.w3.org/TR/2001/REC-SVG-20010904/DTD/svg10.dtd">
<svg version="1.0" xmlns="http://www.w3.org/2000/svg"
 width="300.000000pt" height="151.000000pt" viewBox="0 0 300.000000 151.000000"
 preserveAspectRatio="xMidYMid meet">

<g transform="translate(0.000000,151.000000) scale(0.100000,-0.100000)"
fill="#000000" stroke="none">
<path d="M1680 755 l0 -755 40 0 40 0 0 755 0 755 -40 0 -40 0 0 -755z"/>
<path d="M491 1027 c-76 -27 -101 -107 -101 -328 0 -261 38 -334 170 -332 80
1 120 34 146 121 12 42 15 90 12 240 -3 205 -13 244 -70 285 -33 24 -111 31
-157 14z m96 -65 c26 -17 33 -69 33 -267 0 -217 -6 -251 -46 -261 -74 -19 -87
25 -82 292 3 182 5 204 22 223 19 21 51 27 73 13z"/>
<path d="M885 1026 c-77 -34 -95 -94 -95 -326 0 -157 3 -186 21 -235 12 -31
31 -62 45 -71 38 -25 94 -34 141 -23 94 24 123 104 123 335 0 153 -13 231 -45
280 -32 49 -125 68 -190 40z m111 -77 c17 -19 19 -41 22 -223 4 -228 -4 -282
-43 -292 -34 -8 -60 3 -73 32 -15 33 -16 422 -1 461 18 48 62 58 95 22z"/>
<path d="M20 700 l0 -333 104 5 c153 7 194 38 203 152 7 88 -10 143 -53 168
-41 24 -42 31 -8 53 51 33 71 141 39 209 -26 53 -66 70 -182 74 l-103 4 0
-332z m161 260 c45 -24 63 -114 34 -169 -16 -33 -33 -41 -81 -41 l-34 0 0 103
c0 57 3 107 7 110 10 10 52 8 74 -3z m26 -304 c26 -23 28 -29 28 -101 0 -72
-2 -78 -29 -101 -21 -19 -38 -24 -65 -22 l-36 3 -3 109 c-1 61 0 116 2 123 9
22 72 15 103 -11z"/>
<path d="M1208 700 l3 -330 44 0 45 0 0 157 c0 180 7 186 55 48 16 -44 32 -84
35 -90 4 -5 15 -34 24 -62 l18 -53 50 0 c36 0 49 3 45 13 -3 6 -35 86 -71 177
l-67 164 21 51 c12 27 25 59 30 70 5 11 21 49 35 85 14 36 30 73 35 83 9 15 5
17 -39 17 -43 0 -51 -3 -57 -22 -19 -64 -89 -235 -101 -248 -11 -12 -13 9 -13
128 l0 142 -47 0 -48 0 3 -330z"/>
<path d="M1900 700 l0 -330 50 0 50 0 0 155 0 155 61 0 60 0 -3 33 c-3 32 -4
32 -60 35 l-58 3 0 104 0 105 75 0 75 0 0 35 0 35 -125 0 -125 0 0 -330z"/>
<path d="M2210 700 l0 -330 115 0 115 0 0 35 0 34 -67 3 -68 3 -3 293 -2 292
-45 0 -45 0 0 -330z"/>
<path d="M2500 700 l0 -330 45 0 45 0 0 330 0 330 -45 0 -45 0 0 -330z"/>
<path d="M2682 978 c40 -102 69 -183 84 -233 l16 -51 -60 -162 -60 -162 44 0
c50 0 47 -4 87 125 14 43 29 81 34 82 4 2 19 -32 32 -74 40 -137 37 -133 88
-133 32 0 44 4 41 13 -3 6 -20 53 -38 102 -18 50 -41 112 -52 138 -11 27 -19
61 -20 75 0 21 54 178 107 315 7 16 2 18 -40 15 -54 -3 -48 6 -91 -145 -12
-41 -22 -59 -28 -53 -10 10 -28 67 -49 153 l-11 47 -52 0 -52 0 20 -52z"/>
</g>
</svg>
